# xmcd CD database file
#
# Track frame offsets:
#	150
#	14414
#	31336
#	43386
#	57028
#	71864
#	88808
#	102310
#	118254
#	134218
#	150730
#	166154
#	177980
#	187674
#	203742
#	215586
#	233944
#	246246
#
# Disc length: 3477 seconds
#
# Revision: 1
# Processed by: cddbd v1.5.2PL0 Copyright (c) Steve Scherf et al.
# Submitted via: CDex 1.51
#
DISCID=0a0d9312
DTITLE=Mavericks - Line Dance Einführungskurs 15
DYEAR=2012
DGENRE=Country
TTITLE0=Shirley's Shake 104 Straight - My Dreams (Mark Chesnutt)
TTITLE1=Shirley's Shake 106 Polka - Country Girl (Luke Bryan)
TTITLE2=Shirley's Shake 116 Polka - Joe's Place (Joe Nichols)
TTITLE3=Every Girl 152 2-Step - Buckaroo (Lee Ann Womack)
TTITLE4=Every Girl 162 2-Step - Seventeen (Tim McGraw)
TTITLE5=Every Girl 175 2-Step - Every Girl (Turnpike Troubado)
TTITLE6=Driftaway Cha Cha 94 Cha Cha - What Do You Say To That (George Strait)
TTITLE7=Driftaway Cha Cha 98 Cha Cha - Poison Memories (John Bunzow)
TTITLE8=Driftaway Cha Cha 108 Cha Cha - For You I Will (Aaron Tippin)
TTITLE9=Waltz Across Texas 88 Waltz - Together, Forever, Always (Leann Rimes)
TTITLE10=Waltz Across Texas 96 Waltz - Rose Colored Glasses (John Conlee)
TTITLE11=Waltz Across Texas 99 Waltz - Waltz Across Texas (Ernest Tubb)
TTITLE12=Homework 112 Cha Cha - From a Jack to a Kind (Various Artists)
TTITLE13=Homework 117 Polka - Guns Of Love (Kathy Mattea)
TTITLE14=Homework 124 Cha Cha - Nitty Gritty (Texas Tornados)
TTITLE15=Circle Polka 104 Polka - Old Hippie III (Bellamy Brothers)
TTITLE16=Circle Polka 107 Polka - Halleluja In My Heart (Carlene Carter)
TTITLE17=Circle Polka 116 Polka - I Could Love A Man Like That (Anita Cochran)
EXTD=YEAR: 2012
EXTT0=
EXTT1=
EXTT2=
EXTT3=
EXTT4=
EXTT5=
EXTT6=
EXTT7=
EXTT8=
EXTT9=
EXTT10=
EXTT11=
EXTT12=
EXTT13=
EXTT14=
EXTT15=
EXTT16=
EXTT17=
PLAYORDER=
